<svg xmlns="http://www.w3.org/2000/svg" width="1200" height="900" viewBox="0 0 1200 900">
  <defs>
    <linearGradient id="bg" x1="0%" y1="0%" x2="100%" y2="100%">
      <stop offset="0%" stop-color="#060d18"/>
      <stop offset="100%" stop-color="#0a1525"/>
    </linearGradient>
    <linearGradient id="screen" x1="0%" y1="0%" x2="0%" y2="100%">
      <stop offset="0%" stop-color="#0d1f3c"/>
      <stop offset="100%" stop-color="#091526"/>
    </linearGradient>
    <linearGradient id="tealg" x1="0%" y1="0%" x2="100%" y2="0%">
      <stop offset="0%" stop-color="#00c9b1"/>
      <stop offset="100%" stop-color="#0096c7"/>
    </linearGradient>
    <linearGradient id="card1g" x1="0%" y1="0%" x2="100%" y2="100%">
      <stop offset="0%" stop-color="#0f2744"/>
      <stop offset="100%" stop-color="#0a1e35"/>
    </linearGradient>
  </defs>

  <!-- BG -->
  <rect width="1200" height="900" fill="url(#bg)"/>

  <!-- Ambient glow circles (simple) -->
  <circle cx="600" cy="380" r="350" fill="#00c9b1" opacity="0.025"/>
  <circle cx="200" cy="700" r="200" fill="#0096c7" opacity="0.04"/>
  <circle cx="1000" cy="200" r="180" fill="#00c9b1" opacity="0.03"/>

  <!-- ════════════════════════════════════
       PHONE 1 — LEFT (Dashboard / Home)
  ════════════════════════════════════ -->
  <!-- Shadow -->
  <rect x="148" y="118" width="224" height="454" rx="28" fill="#000" opacity="0.5"/>
  <!-- Shell -->
  <rect x="140" y="110" width="224" height="454" rx="28" fill="#0a1525" stroke="#1a3050" stroke-width="2"/>
  <!-- Screen -->
  <rect x="152" y="125" width="200" height="424" rx="20" fill="url(#screen)"/>
  <!-- Notch -->
  <rect x="212" y="128" width="80" height="14" rx="7" fill="#060e1c"/>

  <!-- App top bar -->
  <rect x="164" y="152" width="176" height="36" rx="10" fill="#0f2744"/>
  <rect x="178" y="162" width="8" height="8" rx="2" fill="#00c9b1"/>
  <rect x="192" y="164" width="55" height="6" rx="3" fill="#00c9b1" opacity="0.5"/>
  <!-- notification dot -->
  <circle cx="326" cy="165" r="5" fill="#e33324"/>

  <!-- Health score ring (drawn as arcs using stroke-dasharray) -->
  <circle cx="252" cy="250" r="48" fill="none" stroke="#0f2744" stroke-width="10"/>
  <circle cx="252" cy="250" r="48" fill="none" stroke="#00c9b1" stroke-width="10"
    stroke-dasharray="240" stroke-dashoffset="50"
    stroke-linecap="round"
    transform="rotate(-90 252 250)"/>
  <!-- Score text -->
  <text x="252" y="244" font-family="Arial, sans-serif" font-size="22" font-weight="900" fill="#ffffff" text-anchor="middle">89</text>
  <text x="252" y="260" font-family="Arial, sans-serif" font-size="8" fill="#4a8fa0" text-anchor="middle">HEALTH SCORE</text>

  <!-- Metrics row -->
  <rect x="164" y="312" width="82" height="52" rx="10" fill="#0f2744"/>
  <text x="205" y="330" font-family="Arial, sans-serif" font-size="8" fill="#4a8fa0" text-anchor="middle" letter-spacing="1">HEART</text>
  <text x="205" y="352" font-family="Arial, sans-serif" font-size="20" font-weight="700" fill="#ffffff" text-anchor="middle">72</text>

  <rect x="254" y="312" width="82" height="52" rx="10" fill="#0f2744"/>
  <text x="295" y="330" font-family="Arial, sans-serif" font-size="8" fill="#4a8fa0" text-anchor="middle" letter-spacing="1">BLOOD O2</text>
  <text x="295" y="352" font-family="Arial, sans-serif" font-size="20" font-weight="700" fill="#00c9b1" text-anchor="middle">98%</text>

  <!-- Doctor card -->
  <rect x="164" y="376" width="176" height="58" rx="12" fill="#061420"/>
  <rect x="164" y="376" width="176" height="3" rx="1.5" fill="#00c9b1"/>
  <circle cx="184" cy="406" r="14" fill="#0f2744" stroke="#00c9b1" stroke-width="1.5"/>
  <text x="184" y="411" font-family="Arial, sans-serif" font-size="11" font-weight="700" fill="#00c9b1" text-anchor="middle">DR</text>
  <text x="205" y="399" font-family="Arial, sans-serif" font-size="11" font-weight="600" fill="#ffffff">Dr. Priya Sharma</text>
  <text x="205" y="413" font-family="Arial, sans-serif" font-size="9" fill="#4a8fa0">Cardiologist · Available</text>
  <rect x="306" y="393" width="26" height="22" rx="11" fill="#00c9b1" opacity="0.2"/>
  <text x="319" y="408" font-family="Arial, sans-serif" font-size="14" fill="#00c9b1" text-anchor="middle">&#9654;</text>

  <!-- Appointment -->
  <rect x="164" y="446" width="176" height="44" rx="10" fill="#0f2744"/>
  <rect x="164" y="446" width="4" height="44" rx="2" fill="#00c9b1"/>
  <text x="178" y="462" font-family="Arial, sans-serif" font-size="9" fill="#888" letter-spacing="1">NEXT APPOINTMENT</text>
  <text x="178" y="478" font-family="Arial, sans-serif" font-size="12" font-weight="700" fill="#ffffff">Today · 3:00 PM</text>

  <!-- Nav bar -->
  <rect x="152" y="502" width="200" height="36" rx="14" fill="#060e1c"/>
  <rect x="168" y="512" width="18" height="16" rx="4" fill="#00c9b1" opacity="0.2"/>
  <rect x="208" y="514" width="18" height="12" rx="3" fill="#334"/>
  <rect x="248" y="514" width="18" height="12" rx="3" fill="#334"/>
  <rect x="288" y="514" width="18" height="12" rx="3" fill="#334"/>
  <rect x="328" y="514" width="10" height="12" rx="3" fill="#334"/>

  <!-- ════════════════════════════════════
       PHONE 2 — CENTER (Consult Screen)  larger
  ════════════════════════════════════ -->
  <rect x="456" y="72" width="288" height="566" rx="34" fill="#000" opacity="0.5"/>
  <rect x="448" y="64" width="288" height="566" rx="34" fill="#0a1525" stroke="#1a3050" stroke-width="2.5"/>
  <rect x="462" y="80" width="260" height="534" rx="26" fill="url(#screen)"/>
  <!-- Notch -->
  <rect x="542" y="84" width="116" height="18" rx="9" fill="#060c18"/>

  <!-- Status bar -->
  <text x="476" y="100" font-family="Arial, sans-serif" font-size="9" fill="#4a5568">9:41</text>
  <rect x="660" y="92" width="30" height="8" rx="4" fill="#4a5568"/>
  <rect x="660" y="92" width="22" height="8" rx="4" fill="#00c9b1"/>

  <!-- App header -->
  <rect x="470" y="108" width="244" height="44" rx="12" fill="#0f2744"/>
  <text x="592" y="135" font-family="Arial, sans-serif" font-size="14" font-weight="700" fill="#ffffff" text-anchor="middle">Aura Health</text>

  <!-- Greeting -->
  <text x="476" y="172" font-family="Arial, sans-serif" font-size="10" fill="#4a8fa0">Good morning, Nithin</text>
  <text x="476" y="190" font-family="Arial, sans-serif" font-size="17" font-weight="700" fill="#ffffff">How are you today?</text>

  <!-- Mood buttons -->
  <rect x="476" y="202" width="52" height="44" rx="12" fill="#0f2744"/>
  <text x="502" y="229" font-family="Arial, sans-serif" font-size="22" text-anchor="middle">&#128512;</text>
  <rect x="536" y="202" width="52" height="44" rx="12" fill="#00c9b1" opacity="0.15"/>
  <text x="562" y="229" font-family="Arial, sans-serif" font-size="22" text-anchor="middle">&#128564;</text>
  <rect x="596" y="202" width="52" height="44" rx="12" fill="#0f2744"/>
  <text x="622" y="229" font-family="Arial, sans-serif" font-size="22" text-anchor="middle">&#129298;</text>
  <rect x="656" y="202" width="52" height="44" rx="12" fill="#0f2744"/>
  <text x="682" y="229" font-family="Arial, sans-serif" font-size="22" text-anchor="middle">&#128170;</text>

  <!-- Large health ring -->
  <circle cx="592" cy="370" r="72" fill="none" stroke="#0f2744" stroke-width="14"/>
  <circle cx="592" cy="370" r="72" fill="none" stroke="#00c9b1" stroke-width="14"
    stroke-dasharray="365" stroke-dashoffset="75"
    stroke-linecap="round" transform="rotate(-90 592 370)"/>
  <circle cx="592" cy="370" r="72" fill="none" stroke="#0096c7" stroke-width="14"
    stroke-dasharray="365" stroke-dashoffset="-290"
    stroke-linecap="round" transform="rotate(-90 592 370)" opacity="0.5"/>
  <text x="592" y="362" font-family="Arial, sans-serif" font-size="32" font-weight="900" fill="#ffffff" text-anchor="middle">89</text>
  <text x="592" y="382" font-family="Arial, sans-serif" font-size="10" fill="#4a8fa0" text-anchor="middle">Health Score</text>

  <!-- Side metrics -->
  <rect x="686" y="330" width="70" height="42" rx="10" fill="#0f2744"/>
  <text x="721" y="347" font-family="Arial, sans-serif" font-size="8" fill="#4a8fa0" text-anchor="middle" letter-spacing="1">STEPS</text>
  <text x="721" y="363" font-family="Arial, sans-serif" font-size="14" font-weight="700" fill="#fff" text-anchor="middle">8.2K</text>
  <rect x="686" y="382" width="70" height="42" rx="10" fill="#0f2744"/>
  <text x="721" y="399" font-family="Arial, sans-serif" font-size="8" fill="#4a8fa0" text-anchor="middle" letter-spacing="1">SLEEP</text>
  <text x="721" y="415" font-family="Arial, sans-serif" font-size="14" font-weight="700" fill="#00c9b1" text-anchor="middle">7.4h</text>

  <!-- Active consult -->
  <rect x="470" y="464" width="244" height="62" rx="14" fill="#061420"/>
  <rect x="470" y="464" width="244" height="3" rx="1.5" fill="#00c9b1"/>
  <circle cx="496" cy="495" r="16" fill="#0f2744" stroke="#00c9b1" stroke-width="1.5"/>
  <text x="496" y="500" font-family="Arial, sans-serif" font-size="11" font-weight="700" fill="#00c9b1" text-anchor="middle">RN</text>
  <text x="522" y="487" font-family="Arial, sans-serif" font-size="12" font-weight="600" fill="#fff">Dr. Rajesh Nair is Online</text>
  <text x="522" y="502" font-family="Arial, sans-serif" font-size="10" fill="#4a8fa0">Tap to start video consultation</text>
  <!-- Green play btn -->
  <rect x="670" y="476" width="36" height="28" rx="14" fill="#00c9b1"/>
  <text x="688" y="495" font-family="Arial, sans-serif" font-size="16" fill="#000" text-anchor="middle" font-weight="900">&#9654;</text>

  <!-- Prescription reminder -->
  <rect x="470" y="538" width="244" height="50" rx="12" fill="#0a1f0a"/>
  <rect x="470" y="538" width="4" height="50" rx="2" fill="#22c55e"/>
  <text x="484" y="556" font-family="Arial, sans-serif" font-size="9" fill="#22c55e" letter-spacing="1">REMINDER</text>
  <text x="484" y="572" font-family="Arial, sans-serif" font-size="12" fill="#e0e0e0">Take Metformin 500mg in 30 min</text>
  <text x="484" y="583" font-family="Arial, sans-serif" font-size="9" fill="#4a7040">After meals · Twice daily</text>

  <!-- Bottom nav -->
  <rect x="462" y="600" width="260" height="48" rx="0" fill="#060c18"/>
  <rect x="462" y="600" width="260" height="2" fill="#0f2744"/>
  <rect x="482" y="612" width="24" height="20" rx="6" fill="#00c9b1" opacity="0.2"/>
  <rect x="554" y="614" width="24" height="16" rx="5" fill="#333"/>
  <rect x="626" y="614" width="24" height="16" rx="5" fill="#333"/>
  <rect x="698" y="614" width="24" height="16" rx="5" fill="#333"/>

  <!-- ════════════════════════════════════
       PHONE 3 — RIGHT (Prescriptions)
  ════════════════════════════════════ -->
  <rect x="836" y="118" width="224" height="454" rx="28" fill="#000" opacity="0.5"/>
  <rect x="828" y="110" width="224" height="454" rx="28" fill="#0a1525" stroke="#1a3050" stroke-width="2"/>
  <rect x="840" y="125" width="200" height="424" rx="20" fill="url(#screen)"/>
  <rect x="898" y="128" width="82" height="14" rx="7" fill="#060e1c"/>

  <!-- Header -->
  <rect x="852" y="152" width="176" height="34" rx="10" fill="#0f2744"/>
  <text x="940" y="174" font-family="Arial, sans-serif" font-size="12" font-weight="700" fill="#ffffff" text-anchor="middle">Prescriptions</text>

  <!-- Med 1 -->
  <rect x="852" y="198" width="176" height="62" rx="12" fill="#0f2744" stroke="#1a3a60" stroke-width="1"/>
  <rect x="852" y="198" width="5" height="62" rx="2.5" fill="#00c9b1"/>
  <text x="866" y="218" font-family="Arial, sans-serif" font-size="12" font-weight="700" fill="#ffffff">Metformin 500mg</text>
  <text x="866" y="233" font-family="Arial, sans-serif" font-size="9" fill="#4a8fa0">Twice daily · After meals</text>
  <rect x="963" y="205" width="54" height="18" rx="9" fill="#00c9b1" opacity="0.2"/>
  <text x="990" y="218" font-family="Arial, sans-serif" font-size="9" fill="#00c9b1" text-anchor="middle">Active</text>
  <text x="866" y="249" font-family="Arial, sans-serif" font-size="9" fill="#444">Refill in 12 days</text>

  <!-- Med 2 -->
  <rect x="852" y="272" width="176" height="62" rx="12" fill="#0f2744" stroke="#1a3a60" stroke-width="1"/>
  <rect x="852" y="272" width="5" height="62" rx="2.5" fill="#0096c7"/>
  <text x="866" y="292" font-family="Arial, sans-serif" font-size="12" font-weight="700" fill="#ffffff">Vitamin D3 · 60K IU</text>
  <text x="866" y="307" font-family="Arial, sans-serif" font-size="9" fill="#4a8fa0">Weekly · Sunday morning</text>
  <rect x="963" y="279" width="54" height="18" rx="9" fill="#0096c7" opacity="0.2"/>
  <text x="990" y="292" font-family="Arial, sans-serif" font-size="9" fill="#0096c7" text-anchor="middle">Active</text>
  <text x="866" y="323" font-family="Arial, sans-serif" font-size="9" fill="#444">Plenty in stock</text>

  <!-- Med 3 -->
  <rect x="852" y="346" width="176" height="62" rx="12" fill="#0f2744" stroke="#1a3a60" stroke-width="1"/>
  <rect x="852" y="346" width="5" height="62" rx="2.5" fill="#a78bfa"/>
  <text x="866" y="366" font-family="Arial, sans-serif" font-size="12" font-weight="700" fill="#ffffff">Lisinopril 10mg</text>
  <text x="866" y="381" font-family="Arial, sans-serif" font-size="9" fill="#4a8fa0">Once daily · Morning</text>
  <rect x="963" y="353" width="54" height="18" rx="9" fill="#a78bfa" opacity="0.15"/>
  <text x="990" y="366" font-family="Arial, sans-serif" font-size="9" fill="#a78bfa" text-anchor="middle">Active</text>
  <text x="866" y="397" font-family="Arial, sans-serif" font-size="9" fill="#444">30 days supply left</text>

  <!-- Blood glucose chart -->
  <rect x="852" y="420" width="176" height="90" rx="12" fill="#060e1c"/>
  <text x="866" y="438" font-family="Arial, sans-serif" font-size="9" fill="#4a8fa0" letter-spacing="1">BLOOD GLUCOSE (mg/dL)</text>
  <!-- Chart line (polyline) -->
  <polyline points="860,490 880,478 900,483 920,468 940,455 960,462 980,448 1000,455 1018,445"
    stroke="#00c9b1" stroke-width="2" fill="none"/>
  <!-- Fill under chart -->
  <polygon points="860,495 860,490 880,478 900,483 920,468 940,455 960,462 980,448 1000,455 1018,445 1018,495"
    fill="#00c9b1" opacity="0.06"/>
  <!-- Target range band -->
  <rect x="860" y="453" width="160" height="15" fill="#00c9b1" opacity="0.04"/>
  <text x="866" y="500" font-family="Arial, sans-serif" font-size="8" fill="#4a5568">Target: 70-140</text>
  <text x="1018" y="447" font-family="Arial, sans-serif" font-size="10" font-weight="700" fill="#00c9b1" text-anchor="end">118</text>

  <!-- Nav bar -->
  <rect x="840" y="502" width="200" height="36" rx="14" fill="#060e1c"/>
  <rect x="856" y="512" width="18" height="16" rx="4" fill="#334"/>
  <rect x="886" y="512" width="18" height="16" rx="4" fill="#334"/>
  <rect x="916" y="512" width="18" height="16" rx="4" fill="#00c9b1" opacity="0.2"/>
  <rect x="946" y="512" width="18" height="16" rx="4" fill="#334"/>
  <rect x="976" y="512" width="18" height="16" rx="4" fill="#334"/>

  <!-- ── BRAND LABEL ── -->
  <rect x="0" y="760" width="1200" height="140" fill="#040a14"/>
  <line x1="0" y1="760" x2="1200" y2="760" stroke="#1a3050" stroke-width="1"/>
  <text x="60" y="808" font-family="Arial, sans-serif" font-size="26" font-weight="900" fill="#ffffff">MOBILE APP</text>
  <text x="60" y="836" font-family="Arial, sans-serif" font-size="13" fill="#00c9b1" letter-spacing="3">AURA HEALTH PLATFORMS · TELEMEDICINE</text>
  <text x="60" y="858" font-family="Arial, sans-serif" font-size="11" fill="#2a4a6a">iOS · Android · React Native · 100,000+ Active Users</text>
  <rect x="980" y="778" width="160" height="40" rx="20" fill="#00c9b1" opacity="0.1"/>
  <rect x="980" y="778" width="160" height="40" rx="20" fill="none" stroke="#00c9b1" stroke-width="1" opacity="0.4"/>
  <text x="1060" y="803" font-family="Arial, sans-serif" font-size="12" fill="#00c9b1" text-anchor="middle" font-weight="700">MOBILE APP</text>
</svg>